<!DOCTYPE svg PUBLIC "-//W3C//DTD SVG 1.1//EN" "http://www.w3.org/Graphics/SVG/1.1/DTD/svg11.dtd">
<!-- Uploaded to: SVG Repo, www.svgrepo.com, Transformed by: SVG Repo Mixer Tools -->
<svg height="800px" width="800px" version="1.1" id="Layer_1" xmlns="http://www.w3.org/2000/svg" xmlns:xlink="http://www.w3.org/1999/xlink" viewBox="0 0 504.654 504.654" xml:space="preserve" fill="#000000" stroke="#000000">
<g id="SVGRepo_bgCarrier" stroke-width="0"/>
<g id="SVGRepo_tracerCarrier" stroke-linecap="round" stroke-linejoin="round"/>
<g id="SVGRepo_iconCarrier"> <path style="fill:#6e7781;" d="M277.668,64.594c0-14.507-11.093-25.6-25.6-25.6c-14.507,0-25.6,11.093-25.6,25.6 s11.093,25.6,25.6,25.6C266.575,90.194,277.668,79.101,277.668,64.594 M235.001,464.807V192.594v-70.827 c-24.747-7.68-42.667-29.867-42.667-57.173c0-33.28,26.453-59.733,59.733-59.733s59.733,26.453,59.733,59.733 c0,27.307-17.92,50.347-42.667,57.173v2.56v68.267v272.213c119.467-6.827,157.867-87.04,167.253-116.907h-34.987l80.213-70.827 l17.067,102.4l-29.013-21.333c-11.093,36.693-57.173,140.8-218.453,140.8S43.855,394.834,32.761,358.14L3.748,379.474l17.067-102.4 l80.213,70.827H66.041C77.135,377.767,115.535,457.981,235.001,464.807"/> <path style="fill:#51565F;" d="M252.068,504.061c-157.867,0-207.36-98.987-221.013-138.24L7.161,383.74 c-1.707,0.853-3.413,0.853-5.12,0c-1.707-0.853-2.56-2.56-1.707-4.267l17.067-102.4c0-1.707,1.707-2.56,2.56-3.413 c1.707-0.853,3.413,0,4.267,0.853l80.213,70.827c1.707,0.853,1.707,3.413,0.853,5.12c-0.853,1.707-2.56,2.56-4.267,2.56l0,0h-28.16 c12.8,34.133,52.907,101.547,162.133,108.373c2.56,0,4.267,2.56,4.267,4.267c0,2.56-2.56,4.267-4.267,4.267 c-123.733-7.68-162.133-93.013-171.52-119.467c-0.853-1.707,0-2.56,0.853-4.267c0.853-0.853,2.56-1.707,3.413-1.707h23.04 l-65.707-58.027l-13.653,84.48l20.48-15.36c0.853-0.853,2.56-0.853,4.267-0.853c1.707,0.853,2.56,1.707,2.56,2.56 c12.8,41.813,58.88,137.387,214.187,137.387c156.16,0,202.24-96.427,214.187-137.387c0-1.707,1.707-2.56,2.56-2.56 s2.56,0,4.267,0.853l20.48,15.36l-13.653-84.48l-65.707,58.027h23.04c0.853,0,2.56,0.853,3.413,1.707 c0.853,0.853,0.853,2.56,0.853,4.267c-8.533,26.453-46.933,112.64-171.52,119.467l0,0c-0.853,0-0.853,0-1.707,0l0,0l0,0 c-0.853,0-0.853-0.853-1.707-0.853l0,0l0,0c-0.853-0.853-0.853-0.853-0.853-1.707l0,0l0,0c0-0.853,0-0.853,0-1.707l0,0l0,0l0,0 V155.047c0-2.56,1.707-4.267,4.267-4.267s4.267,1.707,4.267,4.267v34.133h55.467c2.56,0,4.267,1.707,4.267,4.267 c0,2.56-1.707,4.267-4.267,4.267h-55.467v263.68c105.813-7.68,144.213-74.24,157.013-107.52h-28.16c-1.707,0-3.413-0.853-4.267-2.56 c-0.853-1.707,0-3.413,0.853-5.12l80.213-70.827c0.853-0.853,2.56-1.707,4.267-0.853c1.707,0.853,2.56,1.707,2.56,3.413 l17.067,102.4c0,1.707-0.853,3.413-1.707,4.267c-1.707,0.853-3.413,0.853-5.12,0l-23.893-17.92 C459.428,405.074,409.935,504.061,252.068,504.061z M235.001,435.794c-2.56,0-4.267-1.707-4.267-4.267V196.861h-55.467 c-2.56,0-4.267-1.707-4.267-4.267c0-2.56,1.707-4.267,4.267-4.267h55.467v-63.147c-25.6-8.533-42.667-33.28-42.667-60.587 c0-34.987,29.013-64,64-64s64,29.013,64,64c0,28.16-18.773,52.907-46.08,61.44c-2.56,0.853-4.267-0.853-5.12-2.56 c-0.853-1.707,0.853-4.267,2.56-5.12c23.04-6.827,39.253-29.013,39.253-52.907c0-30.72-24.747-55.467-55.467-55.467 s-55.467,24.747-55.467,55.467c0,24.747,16.213,46.08,39.253,52.907c1.707,0.853,3.413,2.56,3.413,4.267v308.907 C239.268,434.087,237.561,435.794,235.001,435.794z M252.068,94.461c-16.213,0-29.867-13.653-29.867-29.867 s13.653-29.867,29.867-29.867s29.867,13.653,29.867,29.867S268.281,94.461,252.068,94.461z M252.068,43.261 c-11.947,0-21.333,9.387-21.333,21.333s9.387,21.333,21.333,21.333s21.333-9.387,21.333-21.333S264.015,43.261,252.068,43.261z"/> </g>
</svg>