<!DOCTYPE svg PUBLIC "-//W3C//DTD SVG 1.1//EN" "http://www.w3.org/Graphics/SVG/1.1/DTD/svg11.dtd">
<!-- Uploaded to: SVG Repo, www.svgrepo.com, Transformed by: SVG Repo Mixer Tools -->
<svg fill="#1cbad6" width="800px" height="800px" viewBox="0 0 24 24" xmlns="http://www.w3.org/2000/svg" stroke="#1cbad6">
<g id="SVGRepo_bgCarrier" stroke-width="0"/>
<g id="SVGRepo_tracerCarrier" stroke-linecap="round" stroke-linejoin="round"/>
<g id="SVGRepo_iconCarrier">
<path d="M17,23a2,2,0,0,0,2-2V3a2,2,0,0,0-2-2H7A2,2,0,0,0,5,3V21a2,2,0,0,0,2,2ZM7,3H9.5L10,4h4l.5-1H17V21H7Zm6,16a1,1,0,1,1-1-1A1,1,0,0,1,13,19Z"/>
</g>
</svg>